G04 #@! TF.GenerationSoftware,KiCad,Pcbnew,(6.0.6)*
G04 #@! TF.CreationDate,2022-08-07T08:43:24+02:00*
G04 #@! TF.ProjectId,Stepdown led board,53746570-646f-4776-9e20-6c656420626f,rev?*
G04 #@! TF.SameCoordinates,Original*
G04 #@! TF.FileFunction,Copper,L2,Bot*
G04 #@! TF.FilePolarity,Positive*
%FSLAX46Y46*%
G04 Gerber Fmt 4.6, Leading zero omitted, Abs format (unit mm)*
G04 Created by KiCad (PCBNEW (6.0.6)) date 2022-08-07 08:43:24*
%MOMM*%
%LPD*%
G01*
G04 APERTURE LIST*
G04 #@! TA.AperFunction,ComponentPad*
%ADD10R,1.700000X1.700000*%
G04 #@! TD*
G04 #@! TA.AperFunction,ComponentPad*
%ADD11O,1.700000X1.700000*%
G04 #@! TD*
G04 #@! TA.AperFunction,ComponentPad*
%ADD12R,3.000000X3.000000*%
G04 #@! TD*
G04 #@! TA.AperFunction,ComponentPad*
%ADD13C,3.000000*%
G04 #@! TD*
G04 #@! TA.AperFunction,ComponentPad*
%ADD14C,2.340000*%
G04 #@! TD*
G04 #@! TA.AperFunction,ComponentPad*
%ADD15C,1.400000*%
G04 #@! TD*
G04 #@! TA.AperFunction,ComponentPad*
%ADD16O,1.400000X1.400000*%
G04 #@! TD*
G04 #@! TA.AperFunction,Conductor*
%ADD17C,1.000000*%
G04 #@! TD*
G04 APERTURE END LIST*
D10*
X31703356Y-25558197D03*
D11*
X31703356Y-28098197D03*
X31703356Y-30638197D03*
X31703356Y-33178197D03*
D12*
X73660000Y-26805658D03*
D13*
X73660000Y-31885658D03*
D14*
X56357990Y-31904773D03*
X66357990Y-29404773D03*
X56357990Y-26904773D03*
D12*
X24867173Y-26807237D03*
D13*
X24867173Y-31887237D03*
D15*
X52209295Y-33239773D03*
D16*
X52209295Y-25619773D03*
D17*
X31703356Y-28098197D02*
X26158133Y-28098197D01*
X26158133Y-28098197D02*
X24867173Y-26807237D01*
G04 #@! TA.AperFunction,Conductor*
G36*
X78173621Y-23388502D02*
G01*
X78220114Y-23442158D01*
X78231500Y-23494500D01*
X78231500Y-34925500D01*
X78211498Y-34993621D01*
X78157842Y-35040114D01*
X78105500Y-35051500D01*
X20954500Y-35051500D01*
X20886379Y-35031498D01*
X20839886Y-34977842D01*
X20828500Y-34925500D01*
X20828500Y-31866155D01*
X22854090Y-31866155D01*
X22869855Y-32139557D01*
X22870680Y-32143762D01*
X22870681Y-32143770D01*
X22901090Y-32298763D01*
X22922578Y-32408290D01*
X22923965Y-32412340D01*
X22923966Y-32412345D01*
X23009896Y-32663325D01*
X23011285Y-32667381D01*
X23040411Y-32725291D01*
X23082592Y-32809159D01*
X23134333Y-32912036D01*
X23136759Y-32915565D01*
X23136762Y-32915571D01*
X23218568Y-33034598D01*
X23289447Y-33137727D01*
X23292334Y-33140900D01*
X23292335Y-33140901D01*
X23387283Y-33245248D01*
X23473755Y-33340280D01*
X23683848Y-33515944D01*
X23687489Y-33518228D01*
X23912197Y-33659188D01*
X23912201Y-33659190D01*
X23915837Y-33661471D01*
X23980220Y-33690541D01*
X24161518Y-33772401D01*
X24161522Y-33772403D01*
X24165430Y-33774167D01*
X24225826Y-33792057D01*
X24423896Y-33850728D01*
X24423900Y-33850729D01*
X24428009Y-33851946D01*
X24432243Y-33852594D01*
X24432248Y-33852595D01*
X24694471Y-33892720D01*
X24694473Y-33892720D01*
X24698713Y-33893369D01*
X24838085Y-33895559D01*
X24968244Y-33897604D01*
X24968250Y-33897604D01*
X24972535Y-33897671D01*
X25244408Y-33864771D01*
X25509300Y-33795278D01*
X25513260Y-33793638D01*
X25513265Y-33793636D01*
X25635804Y-33742878D01*
X25762309Y-33690478D01*
X25939467Y-33586955D01*
X25995052Y-33554474D01*
X25995053Y-33554473D01*
X25998755Y-33552310D01*
X26214262Y-33383331D01*
X26224309Y-33372964D01*
X26401859Y-33189746D01*
X26404842Y-33186668D01*
X26407375Y-33183220D01*
X26407379Y-33183215D01*
X26435530Y-33144892D01*
X30340607Y-33144892D01*
X30340904Y-33150045D01*
X30340904Y-33150048D01*
X30347620Y-33266516D01*
X30353466Y-33367912D01*
X30354603Y-33372958D01*
X30354604Y-33372964D01*
X30370827Y-33444948D01*
X30402578Y-33585836D01*
X30445094Y-33690541D01*
X30478410Y-33772588D01*
X30486622Y-33792813D01*
X30603343Y-33983285D01*
X30749606Y-34152135D01*
X30921482Y-34294829D01*
X31114356Y-34407535D01*
X31323048Y-34487227D01*
X31328116Y-34488258D01*
X31328119Y-34488259D01*
X31435373Y-34510080D01*
X31541953Y-34531764D01*
X31547128Y-34531954D01*
X31547130Y-34531954D01*
X31760029Y-34539761D01*
X31760033Y-34539761D01*
X31765193Y-34539950D01*
X31770313Y-34539294D01*
X31770315Y-34539294D01*
X31981644Y-34512222D01*
X31981645Y-34512222D01*
X31986772Y-34511565D01*
X31991722Y-34510080D01*
X32195785Y-34448858D01*
X32195790Y-34448856D01*
X32200740Y-34447371D01*
X32401350Y-34349093D01*
X32583216Y-34219370D01*
X32741452Y-34061686D01*
X32800950Y-33978886D01*
X32868791Y-33884474D01*
X32871809Y-33880274D01*
X32879997Y-33863708D01*
X32968492Y-33684650D01*
X32968493Y-33684648D01*
X32970786Y-33680008D01*
X33009584Y-33552310D01*
X33034221Y-33471220D01*
X33034221Y-33471218D01*
X33035726Y-33466266D01*
X33064885Y-33244787D01*
X33065008Y-33239773D01*
X50996179Y-33239773D01*
X51014609Y-33450428D01*
X51016033Y-33455741D01*
X51016033Y-33455743D01*
X51036332Y-33531498D01*
X51069339Y-33654683D01*
X51071661Y-33659664D01*
X51071662Y-33659665D01*
X51135804Y-33797217D01*
X51158706Y-33846331D01*
X51279994Y-34019549D01*
X51429519Y-34169074D01*
X51602737Y-34290362D01*
X51607715Y-34292683D01*
X51607718Y-34292685D01*
X51733569Y-34351370D01*
X51794385Y-34379729D01*
X51799693Y-34381151D01*
X51799695Y-34381152D01*
X51993325Y-34433035D01*
X51993327Y-34433035D01*
X51998640Y-34434459D01*
X52209295Y-34452889D01*
X52419950Y-34434459D01*
X52425263Y-34433035D01*
X52425265Y-34433035D01*
X52618895Y-34381152D01*
X52618897Y-34381151D01*
X52624205Y-34379729D01*
X52685021Y-34351370D01*
X52810872Y-34292685D01*
X52810875Y-34292683D01*
X52815853Y-34290362D01*
X52989071Y-34169074D01*
X53138596Y-34019549D01*
X53259884Y-33846331D01*
X53282787Y-33797217D01*
X53346928Y-33659665D01*
X53346929Y-33659664D01*
X53349251Y-33654683D01*
X53382259Y-33531498D01*
X53402557Y-33455743D01*
X53402557Y-33455741D01*
X53403981Y-33450428D01*
X53422411Y-33239773D01*
X53403981Y-33029118D01*
X53399486Y-33012342D01*
X53350674Y-32830173D01*
X53350673Y-32830171D01*
X53349251Y-32824863D01*
X53341928Y-32809159D01*
X53262207Y-32638196D01*
X53262205Y-32638193D01*
X53259884Y-32633215D01*
X53138596Y-32459997D01*
X52989071Y-32310472D01*
X52815853Y-32189184D01*
X52810875Y-32186863D01*
X52810872Y-32186861D01*
X52629187Y-32102140D01*
X52629186Y-32102139D01*
X52624205Y-32099817D01*
X52618897Y-32098395D01*
X52618895Y-32098394D01*
X52425265Y-32046511D01*
X52425263Y-32046511D01*
X52419950Y-32045087D01*
X52209295Y-32026657D01*
X51998640Y-32045087D01*
X51993327Y-32046511D01*
X51993325Y-32046511D01*
X51799695Y-32098394D01*
X51799693Y-32098395D01*
X51794385Y-32099817D01*
X51789404Y-32102139D01*
X51789403Y-32102140D01*
X51607718Y-32186861D01*
X51607715Y-32186863D01*
X51602737Y-32189184D01*
X51429519Y-32310472D01*
X51279994Y-32459997D01*
X51158706Y-32633215D01*
X51156385Y-32638193D01*
X51156383Y-32638196D01*
X51076662Y-32809159D01*
X51069339Y-32824863D01*
X51067917Y-32830171D01*
X51067916Y-32830173D01*
X51019104Y-33012342D01*
X51014609Y-33029118D01*
X50996179Y-33239773D01*
X33065008Y-33239773D01*
X33066230Y-33189746D01*
X33066430Y-33181562D01*
X33066430Y-33181558D01*
X33066512Y-33178197D01*
X33048208Y-32955558D01*
X32993787Y-32738899D01*
X32904710Y-32534037D01*
X32825984Y-32412345D01*
X32786178Y-32350814D01*
X32786176Y-32350811D01*
X32783370Y-32346474D01*
X32633026Y-32181248D01*
X32628975Y-32178049D01*
X32628971Y-32178045D01*
X32461770Y-32045997D01*
X32461766Y-32045995D01*
X32457715Y-32042795D01*
X32416409Y-32019993D01*
X32366440Y-31969561D01*
X32351668Y-31900118D01*
X32366572Y-31860712D01*
X54675360Y-31860712D01*
X54675584Y-31865379D01*
X54675584Y-31865384D01*
X54678920Y-31934835D01*
X54687329Y-32109904D01*
X54736000Y-32354591D01*
X54820304Y-32589395D01*
X54938388Y-32809159D01*
X54941183Y-32812903D01*
X54941185Y-32812905D01*
X54954080Y-32830173D01*
X55087658Y-33009056D01*
X55264834Y-33184694D01*
X55268596Y-33187452D01*
X55268599Y-33187455D01*
X55458255Y-33326515D01*
X55466026Y-33332213D01*
X55470161Y-33334389D01*
X55470165Y-33334391D01*
X55568224Y-33385982D01*
X55686813Y-33448375D01*
X55692692Y-33450428D01*
X55886842Y-33518228D01*
X55922344Y-33530626D01*
X55926937Y-33531498D01*
X56162857Y-33576289D01*
X56162860Y-33576289D01*
X56167446Y-33577160D01*
X56292090Y-33582058D01*
X56412065Y-33586772D01*
X56412071Y-33586772D01*
X56416733Y-33586955D01*
X56514124Y-33576289D01*
X56660077Y-33560305D01*
X56660082Y-33560304D01*
X56664730Y-33559795D01*
X56669254Y-33558604D01*
X56901466Y-33497467D01*
X56901468Y-33497466D01*
X56905989Y-33496276D01*
X56964309Y-33471220D01*
X57130914Y-33399641D01*
X57130916Y-33399640D01*
X57135208Y-33397796D01*
X57245657Y-33329448D01*
X57343381Y-33268975D01*
X57343385Y-33268972D01*
X57347354Y-33266516D01*
X57373021Y-33244787D01*
X57534199Y-33108340D01*
X57534200Y-33108339D01*
X57537765Y-33105321D01*
X57599788Y-33034598D01*
X57699177Y-32921267D01*
X57699181Y-32921262D01*
X57702259Y-32917752D01*
X57706952Y-32910457D01*
X57834693Y-32711860D01*
X57837221Y-32707930D01*
X57939687Y-32480464D01*
X57961674Y-32402504D01*
X58006136Y-32244855D01*
X58006137Y-32244852D01*
X58007406Y-32240351D01*
X58017301Y-32162570D01*
X58038492Y-31995995D01*
X58038492Y-31995991D01*
X58038890Y-31992865D01*
X58039100Y-31984866D01*
X58040410Y-31934835D01*
X58041197Y-31904773D01*
X58039894Y-31887237D01*
X58038210Y-31864576D01*
X71646917Y-31864576D01*
X71662682Y-32137978D01*
X71663507Y-32142183D01*
X71663508Y-32142191D01*
X71683650Y-32244855D01*
X71715405Y-32406711D01*
X71716792Y-32410761D01*
X71716793Y-32410766D01*
X71792955Y-32633215D01*
X71804112Y-32665802D01*
X71823157Y-32703669D01*
X71886782Y-32830173D01*
X71927160Y-32910457D01*
X71929586Y-32913986D01*
X71929589Y-32913992D01*
X71997184Y-33012342D01*
X72082274Y-33136148D01*
X72085161Y-33139321D01*
X72085162Y-33139322D01*
X72258162Y-33329448D01*
X72266582Y-33338701D01*
X72269877Y-33341456D01*
X72269878Y-33341457D01*
X72295337Y-33362744D01*
X72476675Y-33514365D01*
X72480316Y-33516649D01*
X72705024Y-33657609D01*
X72705028Y-33657611D01*
X72708664Y-33659892D01*
X72776544Y-33690541D01*
X72954345Y-33770822D01*
X72954349Y-33770824D01*
X72958257Y-33772588D01*
X73010375Y-33788026D01*
X73216723Y-33849149D01*
X73216727Y-33849150D01*
X73220836Y-33850367D01*
X73225070Y-33851015D01*
X73225075Y-33851016D01*
X73487298Y-33891141D01*
X73487300Y-33891141D01*
X73491540Y-33891790D01*
X73630912Y-33893980D01*
X73761071Y-33896025D01*
X73761077Y-33896025D01*
X73765362Y-33896092D01*
X74037235Y-33863192D01*
X74302127Y-33793699D01*
X74306087Y-33792059D01*
X74306092Y-33792057D01*
X74428631Y-33741299D01*
X74555136Y-33688899D01*
X74791582Y-33550731D01*
X75007089Y-33381752D01*
X75015606Y-33372964D01*
X75139371Y-33245248D01*
X75197669Y-33185089D01*
X75200202Y-33181641D01*
X75200206Y-33181636D01*
X75357257Y-32967836D01*
X75359795Y-32964381D01*
X75367311Y-32950539D01*
X75488418Y-32727488D01*
X75488419Y-32727486D01*
X75490468Y-32723712D01*
X75574776Y-32500598D01*
X75585751Y-32471553D01*
X75585752Y-32471549D01*
X75587269Y-32467535D01*
X75615870Y-32342654D01*
X75647449Y-32204775D01*
X75647450Y-32204771D01*
X75648407Y-32200591D01*
X75649144Y-32192339D01*
X75672531Y-31930285D01*
X75672531Y-31930283D01*
X75672751Y-31927819D01*
X75672843Y-31919094D01*
X75673167Y-31888142D01*
X75673167Y-31888141D01*
X75673193Y-31885658D01*
X75671958Y-31867535D01*
X75654859Y-31616713D01*
X75654858Y-31616707D01*
X75654567Y-31612436D01*
X75599032Y-31344270D01*
X75507617Y-31086123D01*
X75382013Y-30842770D01*
X75375122Y-30832964D01*
X75227008Y-30622220D01*
X75224545Y-30618715D01*
X75071922Y-30454473D01*
X75041046Y-30421246D01*
X75041043Y-30421243D01*
X75038125Y-30418103D01*
X75034810Y-30415389D01*
X75034806Y-30415386D01*
X74899987Y-30305038D01*
X74826205Y-30244648D01*
X74592704Y-30101559D01*
X74588768Y-30099831D01*
X74345873Y-29993207D01*
X74345869Y-29993206D01*
X74341945Y-29991483D01*
X74078566Y-29916458D01*
X74074324Y-29915854D01*
X74074318Y-29915853D01*
X73818537Y-29879450D01*
X73807443Y-29877871D01*
X73663589Y-29877118D01*
X73537877Y-29876460D01*
X73537871Y-29876460D01*
X73533591Y-29876438D01*
X73529347Y-29876997D01*
X73529343Y-29876997D01*
X73410302Y-29892669D01*
X73262078Y-29912183D01*
X73257938Y-29913316D01*
X73257936Y-29913316D01*
X73240679Y-29918037D01*
X72997928Y-29984446D01*
X72993980Y-29986130D01*
X72749982Y-30090204D01*
X72749978Y-30090206D01*
X72746030Y-30091890D01*
X72627536Y-30162807D01*
X72514725Y-30230322D01*
X72514721Y-30230325D01*
X72511043Y-30232526D01*
X72297318Y-30403752D01*
X72200935Y-30505318D01*
X72116771Y-30594009D01*
X72108808Y-30602400D01*
X71949002Y-30824794D01*
X71820857Y-31066819D01*
X71819385Y-31070842D01*
X71819383Y-31070846D01*
X71728214Y-31319975D01*
X71726743Y-31323995D01*
X71668404Y-31591565D01*
X71663693Y-31651425D01*
X71652183Y-31797673D01*
X71646917Y-31864576D01*
X58038210Y-31864576D01*
X58023054Y-31660631D01*
X58023053Y-31660627D01*
X58022708Y-31655979D01*
X57967649Y-31412651D01*
X57965956Y-31408297D01*
X57878921Y-31184487D01*
X57878920Y-31184485D01*
X57877228Y-31180134D01*
X57753432Y-30963536D01*
X57598980Y-30767615D01*
X57417266Y-30596675D01*
X57285575Y-30505318D01*
X57216120Y-30457135D01*
X57216115Y-30457132D01*
X57212282Y-30454473D01*
X57208100Y-30452410D01*
X57208092Y-30452406D01*
X56992718Y-30346196D01*
X56992715Y-30346195D01*
X56988530Y-30344131D01*
X56750927Y-30268073D01*
X56746320Y-30267323D01*
X56746317Y-30267322D01*
X56528822Y-30231901D01*
X56504691Y-30227971D01*
X56383743Y-30226388D01*
X56259910Y-30224767D01*
X56259907Y-30224767D01*
X56255233Y-30224706D01*
X56008032Y-30258348D01*
X56003546Y-30259656D01*
X56003544Y-30259656D01*
X55974667Y-30268073D01*
X55768518Y-30328160D01*
X55541955Y-30432607D01*
X55538046Y-30435170D01*
X55337232Y-30566829D01*
X55337227Y-30566833D01*
X55333319Y-30569395D01*
X55147192Y-30735519D01*
X54987665Y-30927330D01*
X54858242Y-31140613D01*
X54856433Y-31144927D01*
X54856432Y-31144929D01*
X54772756Y-31344474D01*
X54761765Y-31370684D01*
X54760614Y-31375216D01*
X54760613Y-31375219D01*
X54751107Y-31412651D01*
X54700355Y-31612487D01*
X54675360Y-31860712D01*
X32366572Y-31860712D01*
X32376784Y-31833713D01*
X32404136Y-31807106D01*
X32447959Y-31775847D01*
X32583216Y-31679370D01*
X32653012Y-31609818D01*
X32671328Y-31591565D01*
X32741452Y-31521686D01*
X32800950Y-31438886D01*
X32868791Y-31344474D01*
X32871809Y-31340274D01*
X32881842Y-31319975D01*
X32968492Y-31144650D01*
X32968493Y-31144648D01*
X32970786Y-31140008D01*
X33023170Y-30967594D01*
X33034221Y-30931220D01*
X33034221Y-30931218D01*
X33035726Y-30926266D01*
X33064885Y-30704787D01*
X33064967Y-30701437D01*
X33066430Y-30641562D01*
X33066430Y-30641558D01*
X33066512Y-30638197D01*
X33048208Y-30415558D01*
X32993787Y-30198899D01*
X32904710Y-29994037D01*
X32854522Y-29916458D01*
X32786178Y-29810814D01*
X32786176Y-29810811D01*
X32783370Y-29806474D01*
X32633026Y-29641248D01*
X32628975Y-29638049D01*
X32628971Y-29638045D01*
X32461770Y-29505997D01*
X32461766Y-29505995D01*
X32457715Y-29502795D01*
X32415925Y-29479726D01*
X32365954Y-29429294D01*
X32351365Y-29360712D01*
X64675360Y-29360712D01*
X64675584Y-29365379D01*
X64675584Y-29365384D01*
X64676361Y-29381554D01*
X64687329Y-29609904D01*
X64736000Y-29854591D01*
X64820304Y-30089395D01*
X64938388Y-30309159D01*
X64941183Y-30312903D01*
X64941185Y-30312905D01*
X64954041Y-30330121D01*
X65087658Y-30509056D01*
X65264834Y-30684694D01*
X65268596Y-30687452D01*
X65268599Y-30687455D01*
X65382927Y-30771283D01*
X65466026Y-30832213D01*
X65470161Y-30834389D01*
X65470165Y-30834391D01*
X65585999Y-30895334D01*
X65686813Y-30948375D01*
X65922344Y-31030626D01*
X65926937Y-31031498D01*
X66162857Y-31076289D01*
X66162860Y-31076289D01*
X66167446Y-31077160D01*
X66292090Y-31082058D01*
X66412065Y-31086772D01*
X66412071Y-31086772D01*
X66416733Y-31086955D01*
X66514124Y-31076289D01*
X66660077Y-31060305D01*
X66660082Y-31060304D01*
X66664730Y-31059795D01*
X66699571Y-31050622D01*
X66901466Y-30997467D01*
X66901468Y-30997466D01*
X66905989Y-30996276D01*
X66910286Y-30994430D01*
X67130914Y-30899641D01*
X67130916Y-30899640D01*
X67135208Y-30897796D01*
X67339651Y-30771283D01*
X67343381Y-30768975D01*
X67343385Y-30768972D01*
X67347354Y-30766516D01*
X67447890Y-30681406D01*
X67534199Y-30608340D01*
X67534200Y-30608339D01*
X67537765Y-30605321D01*
X67619306Y-30512342D01*
X67699177Y-30421267D01*
X67699181Y-30421262D01*
X67702259Y-30417752D01*
X67710249Y-30405331D01*
X67805196Y-30257718D01*
X67837221Y-30207930D01*
X67939687Y-29980464D01*
X67968182Y-29879428D01*
X68006136Y-29744855D01*
X68006137Y-29744852D01*
X68007406Y-29740351D01*
X68024595Y-29605232D01*
X68038492Y-29495995D01*
X68038492Y-29495991D01*
X68038890Y-29492865D01*
X68039023Y-29487809D01*
X68041114Y-29407933D01*
X68041197Y-29404773D01*
X68040458Y-29394835D01*
X68023054Y-29160631D01*
X68023053Y-29160627D01*
X68022708Y-29155979D01*
X67967649Y-28912651D01*
X67962179Y-28898585D01*
X67878921Y-28684487D01*
X67878920Y-28684485D01*
X67877228Y-28680134D01*
X67866511Y-28661382D01*
X67808740Y-28560305D01*
X67753432Y-28463536D01*
X67664185Y-28350327D01*
X71652001Y-28350327D01*
X71652371Y-28357148D01*
X71657895Y-28408010D01*
X71661521Y-28423262D01*
X71706676Y-28543712D01*
X71715214Y-28559307D01*
X71791715Y-28661382D01*
X71804276Y-28673943D01*
X71906351Y-28750444D01*
X71921946Y-28758982D01*
X72042394Y-28804136D01*
X72057649Y-28807763D01*
X72108514Y-28813289D01*
X72115328Y-28813658D01*
X73387885Y-28813658D01*
X73403124Y-28809183D01*
X73404329Y-28807793D01*
X73406000Y-28800110D01*
X73406000Y-28795542D01*
X73914000Y-28795542D01*
X73918475Y-28810781D01*
X73919865Y-28811986D01*
X73927548Y-28813657D01*
X75204669Y-28813657D01*
X75211490Y-28813287D01*
X75262352Y-28807763D01*
X75277604Y-28804137D01*
X75398054Y-28758982D01*
X75413649Y-28750444D01*
X75515724Y-28673943D01*
X75528285Y-28661382D01*
X75604786Y-28559307D01*
X75613324Y-28543712D01*
X75658478Y-28423264D01*
X75662105Y-28408009D01*
X75667631Y-28357144D01*
X75668000Y-28350330D01*
X75668000Y-27077773D01*
X75663525Y-27062534D01*
X75662135Y-27061329D01*
X75654452Y-27059658D01*
X73932115Y-27059658D01*
X73916876Y-27064133D01*
X73915671Y-27065523D01*
X73914000Y-27073206D01*
X73914000Y-28795542D01*
X73406000Y-28795542D01*
X73406000Y-27077773D01*
X73401525Y-27062534D01*
X73400135Y-27061329D01*
X73392452Y-27059658D01*
X71670116Y-27059658D01*
X71654877Y-27064133D01*
X71653672Y-27065523D01*
X71652001Y-27073206D01*
X71652001Y-28350327D01*
X67664185Y-28350327D01*
X67598980Y-28267615D01*
X67417266Y-28096675D01*
X67285575Y-28005318D01*
X67216120Y-27957135D01*
X67216115Y-27957132D01*
X67212282Y-27954473D01*
X67208100Y-27952410D01*
X67208092Y-27952406D01*
X66992718Y-27846196D01*
X66992715Y-27846195D01*
X66988530Y-27844131D01*
X66750927Y-27768073D01*
X66746320Y-27767323D01*
X66746317Y-27767322D01*
X66509302Y-27728722D01*
X66509303Y-27728722D01*
X66504691Y-27727971D01*
X66383743Y-27726388D01*
X66259910Y-27724767D01*
X66259907Y-27724767D01*
X66255233Y-27724706D01*
X66008032Y-27758348D01*
X66003546Y-27759656D01*
X66003544Y-27759656D01*
X65974667Y-27768073D01*
X65768518Y-27828160D01*
X65541955Y-27932607D01*
X65538046Y-27935170D01*
X65337232Y-28066829D01*
X65337227Y-28066833D01*
X65333319Y-28069395D01*
X65147192Y-28235519D01*
X64987665Y-28427330D01*
X64858242Y-28640613D01*
X64856433Y-28644927D01*
X64856432Y-28644929D01*
X64785171Y-28814868D01*
X64761765Y-28870684D01*
X64760614Y-28875216D01*
X64760613Y-28875219D01*
X64751107Y-28912651D01*
X64700355Y-29112487D01*
X64675360Y-29360712D01*
X32351365Y-29360712D01*
X32351182Y-29359851D01*
X32376298Y-29293445D01*
X32403650Y-29266838D01*
X32578684Y-29141989D01*
X32586556Y-29135336D01*
X32737408Y-28985009D01*
X32744086Y-28977162D01*
X32868359Y-28804217D01*
X32873669Y-28795380D01*
X32968026Y-28604464D01*
X32971825Y-28594869D01*
X33033733Y-28391107D01*
X33035911Y-28381034D01*
X33037342Y-28370159D01*
X33035131Y-28355975D01*
X33021973Y-28352197D01*
X30386581Y-28352197D01*
X30373050Y-28356170D01*
X30371613Y-28366163D01*
X30401921Y-28500643D01*
X30405001Y-28510472D01*
X30485126Y-28707800D01*
X30489769Y-28716991D01*
X30601050Y-28898585D01*
X30607133Y-28906896D01*
X30746569Y-29067864D01*
X30753936Y-29075080D01*
X30917790Y-29211113D01*
X30926237Y-29217028D01*
X30995325Y-29257400D01*
X31044049Y-29309039D01*
X31057120Y-29378822D01*
X31030389Y-29444593D01*
X30989940Y-29477949D01*
X30976963Y-29484704D01*
X30972830Y-29487807D01*
X30972827Y-29487809D01*
X30810212Y-29609904D01*
X30798321Y-29618832D01*
X30794749Y-29622570D01*
X30677891Y-29744855D01*
X30643985Y-29780335D01*
X30518099Y-29964877D01*
X30504216Y-29994786D01*
X30454654Y-30101559D01*
X30424044Y-30167502D01*
X30364345Y-30382767D01*
X30340607Y-30604892D01*
X30340904Y-30610045D01*
X30340904Y-30610048D01*
X30346367Y-30704787D01*
X30353466Y-30827912D01*
X30354603Y-30832958D01*
X30354604Y-30832964D01*
X30356380Y-30840844D01*
X30402578Y-31045836D01*
X30486622Y-31252813D01*
X30489321Y-31257217D01*
X30584571Y-31412651D01*
X30603343Y-31443285D01*
X30749606Y-31612135D01*
X30921482Y-31754829D01*
X30991951Y-31796008D01*
X30994801Y-31797673D01*
X31043525Y-31849311D01*
X31056596Y-31919094D01*
X31029865Y-31984866D01*
X30989411Y-32018224D01*
X30976963Y-32024704D01*
X30972830Y-32027807D01*
X30972827Y-32027809D01*
X30802456Y-32155727D01*
X30798321Y-32158832D01*
X30643985Y-32320335D01*
X30518099Y-32504877D01*
X30424044Y-32707502D01*
X30364345Y-32922767D01*
X30340607Y-33144892D01*
X26435530Y-33144892D01*
X26564430Y-32969415D01*
X26566968Y-32965960D01*
X26590420Y-32922767D01*
X26695591Y-32729067D01*
X26695592Y-32729065D01*
X26697641Y-32725291D01*
X26779154Y-32509572D01*
X26792924Y-32473132D01*
X26792925Y-32473128D01*
X26794442Y-32469114D01*
X26845804Y-32244855D01*
X26854622Y-32206354D01*
X26854623Y-32206350D01*
X26855580Y-32202170D01*
X26856458Y-32192339D01*
X26879704Y-31931864D01*
X26879704Y-31931862D01*
X26879924Y-31929398D01*
X26880366Y-31887237D01*
X26878530Y-31860306D01*
X26862032Y-31618292D01*
X26862031Y-31618286D01*
X26861740Y-31614015D01*
X26806205Y-31345849D01*
X26714790Y-31087702D01*
X26589186Y-30844349D01*
X26582188Y-30834391D01*
X26434181Y-30623799D01*
X26431718Y-30620294D01*
X26324876Y-30505318D01*
X26248219Y-30422825D01*
X26248216Y-30422822D01*
X26245298Y-30419682D01*
X26241983Y-30416968D01*
X26241979Y-30416965D01*
X26105231Y-30305038D01*
X26033378Y-30246227D01*
X25799877Y-30103138D01*
X25795941Y-30101410D01*
X25553046Y-29994786D01*
X25553042Y-29994785D01*
X25549118Y-29993062D01*
X25285739Y-29918037D01*
X25281497Y-29917433D01*
X25281491Y-29917432D01*
X25081007Y-29888899D01*
X25014616Y-29879450D01*
X24870762Y-29878697D01*
X24745050Y-29878039D01*
X24745044Y-29878039D01*
X24740764Y-29878017D01*
X24736520Y-29878576D01*
X24736516Y-29878576D01*
X24617475Y-29894248D01*
X24469251Y-29913762D01*
X24465111Y-29914895D01*
X24465109Y-29914895D01*
X24392181Y-29934846D01*
X24205101Y-29986025D01*
X24201153Y-29987709D01*
X23957155Y-30091783D01*
X23957151Y-30091785D01*
X23953203Y-30093469D01*
X23933298Y-30105382D01*
X23721898Y-30231901D01*
X23721894Y-30231904D01*
X23718216Y-30234105D01*
X23504491Y-30405331D01*
X23457857Y-30454473D01*
X23319872Y-30599879D01*
X23315981Y-30603979D01*
X23156175Y-30826373D01*
X23028030Y-31068398D01*
X23026558Y-31072421D01*
X23026556Y-31072425D01*
X23019487Y-31091743D01*
X22933916Y-31325574D01*
X22875577Y-31593144D01*
X22854090Y-31866155D01*
X20828500Y-31866155D01*
X20828500Y-28351906D01*
X22859174Y-28351906D01*
X22859544Y-28358727D01*
X22865068Y-28409589D01*
X22868694Y-28424841D01*
X22913849Y-28545291D01*
X22922387Y-28560886D01*
X22998888Y-28662961D01*
X23011449Y-28675522D01*
X23113524Y-28752023D01*
X23129119Y-28760561D01*
X23249567Y-28805715D01*
X23264822Y-28809342D01*
X23315687Y-28814868D01*
X23322501Y-28815237D01*
X24595058Y-28815237D01*
X24610297Y-28810762D01*
X24611502Y-28809372D01*
X24613173Y-28801689D01*
X24613173Y-28797121D01*
X25121173Y-28797121D01*
X25125648Y-28812360D01*
X25127038Y-28813565D01*
X25134721Y-28815236D01*
X26411842Y-28815236D01*
X26418663Y-28814866D01*
X26469525Y-28809342D01*
X26484777Y-28805716D01*
X26605227Y-28760561D01*
X26620822Y-28752023D01*
X26722897Y-28675522D01*
X26735458Y-28662961D01*
X26811959Y-28560886D01*
X26820497Y-28545291D01*
X26865651Y-28424843D01*
X26869278Y-28409588D01*
X26874804Y-28358723D01*
X26875173Y-28351909D01*
X26875173Y-27079352D01*
X26870698Y-27064113D01*
X26869308Y-27062908D01*
X26861625Y-27061237D01*
X25139288Y-27061237D01*
X25124049Y-27065712D01*
X25122844Y-27067102D01*
X25121173Y-27074785D01*
X25121173Y-28797121D01*
X24613173Y-28797121D01*
X24613173Y-27079352D01*
X24608698Y-27064113D01*
X24607308Y-27062908D01*
X24599625Y-27061237D01*
X22877289Y-27061237D01*
X22862050Y-27065712D01*
X22860845Y-27067102D01*
X22859174Y-27074785D01*
X22859174Y-28351906D01*
X20828500Y-28351906D01*
X20828500Y-26535122D01*
X22859173Y-26535122D01*
X22863648Y-26550361D01*
X22865038Y-26551566D01*
X22872721Y-26553237D01*
X24595058Y-26553237D01*
X24610297Y-26548762D01*
X24611502Y-26547372D01*
X24613173Y-26539689D01*
X24613173Y-26535122D01*
X25121173Y-26535122D01*
X25125648Y-26550361D01*
X25127038Y-26551566D01*
X25134721Y-26553237D01*
X26857057Y-26553237D01*
X26872296Y-26548762D01*
X26873501Y-26547372D01*
X26875172Y-26539689D01*
X26875172Y-26456331D01*
X30344856Y-26456331D01*
X30351611Y-26518513D01*
X30402741Y-26654902D01*
X30490095Y-26771458D01*
X30606651Y-26858812D01*
X30615060Y-26861964D01*
X30615061Y-26861965D01*
X30724316Y-26902923D01*
X30781081Y-26945564D01*
X30805781Y-27012126D01*
X30790574Y-27081475D01*
X30771181Y-27107956D01*
X30647946Y-27236914D01*
X30641460Y-27244924D01*
X30521454Y-27420846D01*
X30516356Y-27429820D01*
X30426694Y-27622980D01*
X30423131Y-27632667D01*
X30367745Y-27832380D01*
X30369268Y-27840804D01*
X30381648Y-27844197D01*
X33021700Y-27844197D01*
X33035231Y-27840224D01*
X33036536Y-27831144D01*
X32994570Y-27664072D01*
X32991250Y-27654321D01*
X32906328Y-27459011D01*
X32901461Y-27449936D01*
X32785782Y-27271123D01*
X32779492Y-27262954D01*
X32635649Y-27104874D01*
X32604597Y-27041028D01*
X32612991Y-26970530D01*
X32658168Y-26915761D01*
X32684612Y-26902092D01*
X32791653Y-26861964D01*
X32794993Y-26860712D01*
X54675360Y-26860712D01*
X54675584Y-26865379D01*
X54675584Y-26865384D01*
X54680635Y-26970530D01*
X54687329Y-27109904D01*
X54736000Y-27354591D01*
X54820304Y-27589395D01*
X54938388Y-27809159D01*
X54941183Y-27812903D01*
X54941185Y-27812905D01*
X54954041Y-27830121D01*
X55087658Y-28009056D01*
X55264834Y-28184694D01*
X55268596Y-28187452D01*
X55268599Y-28187455D01*
X55382927Y-28271283D01*
X55466026Y-28332213D01*
X55470161Y-28334389D01*
X55470165Y-28334391D01*
X55530554Y-28366163D01*
X55686813Y-28448375D01*
X55922344Y-28530626D01*
X55926937Y-28531498D01*
X56162857Y-28576289D01*
X56162860Y-28576289D01*
X56167446Y-28577160D01*
X56292090Y-28582058D01*
X56412065Y-28586772D01*
X56412071Y-28586772D01*
X56416733Y-28586955D01*
X56514124Y-28576289D01*
X56660077Y-28560305D01*
X56660082Y-28560304D01*
X56664730Y-28559795D01*
X56669254Y-28558604D01*
X56901466Y-28497467D01*
X56901468Y-28497466D01*
X56905989Y-28496276D01*
X56910286Y-28494430D01*
X57130914Y-28399641D01*
X57130916Y-28399640D01*
X57135208Y-28397796D01*
X57339651Y-28271283D01*
X57343381Y-28268975D01*
X57343385Y-28268972D01*
X57347354Y-28266516D01*
X57537765Y-28105321D01*
X57619306Y-28012342D01*
X57699177Y-27921267D01*
X57699181Y-27921262D01*
X57702259Y-27917752D01*
X57759887Y-27828160D01*
X57834693Y-27711860D01*
X57837221Y-27707930D01*
X57939687Y-27480464D01*
X57956501Y-27420846D01*
X58006136Y-27244855D01*
X58006137Y-27244852D01*
X58007406Y-27240351D01*
X58024641Y-27104874D01*
X58038492Y-26995995D01*
X58038492Y-26995991D01*
X58038890Y-26992865D01*
X58041197Y-26904773D01*
X58030418Y-26759729D01*
X58023054Y-26660631D01*
X58023053Y-26660627D01*
X58022708Y-26655979D01*
X57995004Y-26533543D01*
X71652000Y-26533543D01*
X71656475Y-26548782D01*
X71657865Y-26549987D01*
X71665548Y-26551658D01*
X73387885Y-26551658D01*
X73403124Y-26547183D01*
X73404329Y-26545793D01*
X73406000Y-26538110D01*
X73406000Y-26533543D01*
X73914000Y-26533543D01*
X73918475Y-26548782D01*
X73919865Y-26549987D01*
X73927548Y-26551658D01*
X75649884Y-26551658D01*
X75665123Y-26547183D01*
X75666328Y-26545793D01*
X75667999Y-26538110D01*
X75667999Y-25260989D01*
X75667629Y-25254168D01*
X75662105Y-25203306D01*
X75658479Y-25188054D01*
X75613324Y-25067604D01*
X75604786Y-25052009D01*
X75528285Y-24949934D01*
X75515724Y-24937373D01*
X75413649Y-24860872D01*
X75398054Y-24852334D01*
X75277606Y-24807180D01*
X75262351Y-24803553D01*
X75211486Y-24798027D01*
X75204672Y-24797658D01*
X73932115Y-24797658D01*
X73916876Y-24802133D01*
X73915671Y-24803523D01*
X73914000Y-24811206D01*
X73914000Y-26533543D01*
X73406000Y-26533543D01*
X73406000Y-24815774D01*
X73401525Y-24800535D01*
X73400135Y-24799330D01*
X73392452Y-24797659D01*
X72115331Y-24797659D01*
X72108510Y-24798029D01*
X72057648Y-24803553D01*
X72042396Y-24807179D01*
X71921946Y-24852334D01*
X71906351Y-24860872D01*
X71804276Y-24937373D01*
X71791715Y-24949934D01*
X71715214Y-25052009D01*
X71706676Y-25067604D01*
X71661522Y-25188052D01*
X71657895Y-25203307D01*
X71652369Y-25254172D01*
X71652000Y-25260986D01*
X71652000Y-26533543D01*
X57995004Y-26533543D01*
X57967649Y-26412651D01*
X57960799Y-26395037D01*
X57878921Y-26184487D01*
X57878920Y-26184485D01*
X57877228Y-26180134D01*
X57753432Y-25963536D01*
X57598980Y-25767615D01*
X57417266Y-25596675D01*
X57301150Y-25516123D01*
X57216120Y-25457135D01*
X57216115Y-25457132D01*
X57212282Y-25454473D01*
X57208100Y-25452410D01*
X57208092Y-25452406D01*
X56992718Y-25346196D01*
X56992715Y-25346195D01*
X56988530Y-25344131D01*
X56750927Y-25268073D01*
X56746320Y-25267323D01*
X56746317Y-25267322D01*
X56509302Y-25228722D01*
X56509303Y-25228722D01*
X56504691Y-25227971D01*
X56383743Y-25226388D01*
X56259910Y-25224767D01*
X56259907Y-25224767D01*
X56255233Y-25224706D01*
X56008032Y-25258348D01*
X56003546Y-25259656D01*
X56003544Y-25259656D01*
X55974667Y-25268073D01*
X55768518Y-25328160D01*
X55541955Y-25432607D01*
X55538046Y-25435170D01*
X55337232Y-25566829D01*
X55337227Y-25566833D01*
X55333319Y-25569395D01*
X55147192Y-25735519D01*
X54987665Y-25927330D01*
X54858242Y-26140613D01*
X54761765Y-26370684D01*
X54760614Y-26375216D01*
X54760613Y-26375219D01*
X54751107Y-26412651D01*
X54700355Y-26612487D01*
X54675360Y-26860712D01*
X32794993Y-26860712D01*
X32800061Y-26858812D01*
X32916617Y-26771458D01*
X33003971Y-26654902D01*
X33055101Y-26518513D01*
X33061856Y-26456331D01*
X33061856Y-25619773D01*
X50996179Y-25619773D01*
X51014609Y-25830428D01*
X51016033Y-25835741D01*
X51016033Y-25835743D01*
X51051363Y-25967594D01*
X51069339Y-26034683D01*
X51071661Y-26039664D01*
X51071662Y-26039665D01*
X51135273Y-26176078D01*
X51158706Y-26226331D01*
X51279994Y-26399549D01*
X51429519Y-26549074D01*
X51602737Y-26670362D01*
X51607715Y-26672683D01*
X51607718Y-26672685D01*
X51789403Y-26757406D01*
X51794385Y-26759729D01*
X51799693Y-26761151D01*
X51799695Y-26761152D01*
X51993325Y-26813035D01*
X51993327Y-26813035D01*
X51998640Y-26814459D01*
X52209295Y-26832889D01*
X52419950Y-26814459D01*
X52425263Y-26813035D01*
X52425265Y-26813035D01*
X52618895Y-26761152D01*
X52618897Y-26761151D01*
X52624205Y-26759729D01*
X52629187Y-26757406D01*
X52810872Y-26672685D01*
X52810875Y-26672683D01*
X52815853Y-26670362D01*
X52989071Y-26549074D01*
X53138596Y-26399549D01*
X53259884Y-26226331D01*
X53283318Y-26176078D01*
X53346928Y-26039665D01*
X53346929Y-26039664D01*
X53349251Y-26034683D01*
X53367228Y-25967594D01*
X53402557Y-25835743D01*
X53402557Y-25835741D01*
X53403981Y-25830428D01*
X53422411Y-25619773D01*
X53403981Y-25409118D01*
X53386568Y-25344131D01*
X53350674Y-25210173D01*
X53350673Y-25210171D01*
X53349251Y-25204863D01*
X53341412Y-25188052D01*
X53262207Y-25018196D01*
X53262205Y-25018193D01*
X53259884Y-25013215D01*
X53138596Y-24839997D01*
X52989071Y-24690472D01*
X52815853Y-24569184D01*
X52810875Y-24566863D01*
X52810872Y-24566861D01*
X52629187Y-24482140D01*
X52629186Y-24482139D01*
X52624205Y-24479817D01*
X52618897Y-24478395D01*
X52618895Y-24478394D01*
X52425265Y-24426511D01*
X52425263Y-24426511D01*
X52419950Y-24425087D01*
X52209295Y-24406657D01*
X51998640Y-24425087D01*
X51993327Y-24426511D01*
X51993325Y-24426511D01*
X51799695Y-24478394D01*
X51799693Y-24478395D01*
X51794385Y-24479817D01*
X51789404Y-24482139D01*
X51789403Y-24482140D01*
X51607718Y-24566861D01*
X51607715Y-24566863D01*
X51602737Y-24569184D01*
X51429519Y-24690472D01*
X51279994Y-24839997D01*
X51158706Y-25013215D01*
X51156385Y-25018193D01*
X51156383Y-25018196D01*
X51077178Y-25188052D01*
X51069339Y-25204863D01*
X51067917Y-25210171D01*
X51067916Y-25210173D01*
X51032022Y-25344131D01*
X51014609Y-25409118D01*
X50996179Y-25619773D01*
X33061856Y-25619773D01*
X33061856Y-24660063D01*
X33055101Y-24597881D01*
X33003971Y-24461492D01*
X32916617Y-24344936D01*
X32800061Y-24257582D01*
X32663672Y-24206452D01*
X32601490Y-24199697D01*
X30805222Y-24199697D01*
X30743040Y-24206452D01*
X30606651Y-24257582D01*
X30490095Y-24344936D01*
X30402741Y-24461492D01*
X30351611Y-24597881D01*
X30344856Y-24660063D01*
X30344856Y-26456331D01*
X26875172Y-26456331D01*
X26875172Y-25262568D01*
X26874802Y-25255747D01*
X26869278Y-25204885D01*
X26865652Y-25189633D01*
X26820497Y-25069183D01*
X26811959Y-25053588D01*
X26735458Y-24951513D01*
X26722897Y-24938952D01*
X26620822Y-24862451D01*
X26605227Y-24853913D01*
X26484779Y-24808759D01*
X26469524Y-24805132D01*
X26418659Y-24799606D01*
X26411845Y-24799237D01*
X25139288Y-24799237D01*
X25124049Y-24803712D01*
X25122844Y-24805102D01*
X25121173Y-24812785D01*
X25121173Y-26535122D01*
X24613173Y-26535122D01*
X24613173Y-24817353D01*
X24608698Y-24802114D01*
X24607308Y-24800909D01*
X24599625Y-24799238D01*
X23322504Y-24799238D01*
X23315683Y-24799608D01*
X23264821Y-24805132D01*
X23249569Y-24808758D01*
X23129119Y-24853913D01*
X23113524Y-24862451D01*
X23011449Y-24938952D01*
X22998888Y-24951513D01*
X22922387Y-25053588D01*
X22913849Y-25069183D01*
X22868695Y-25189631D01*
X22865068Y-25204886D01*
X22859542Y-25255751D01*
X22859173Y-25262565D01*
X22859173Y-26535122D01*
X20828500Y-26535122D01*
X20828500Y-23494500D01*
X20848502Y-23426379D01*
X20902158Y-23379886D01*
X20954500Y-23368500D01*
X78105500Y-23368500D01*
X78173621Y-23388502D01*
G37*
G04 #@! TD.AperFunction*
M02*
