G04 #@! TF.GenerationSoftware,KiCad,Pcbnew,(6.0.6)*
G04 #@! TF.CreationDate,2022-08-23T08:07:10+02:00*
G04 #@! TF.ProjectId,Stepdown led board,53746570-646f-4776-9e20-6c656420626f,rev?*
G04 #@! TF.SameCoordinates,Original*
G04 #@! TF.FileFunction,Legend,Bot*
G04 #@! TF.FilePolarity,Positive*
%FSLAX46Y46*%
G04 Gerber Fmt 4.6, Leading zero omitted, Abs format (unit mm)*
G04 Created by KiCad (PCBNEW (6.0.6)) date 2022-08-23 08:07:10*
%MOMM*%
%LPD*%
G01*
G04 APERTURE LIST*
G04 Aperture macros list*
%AMRoundRect*
0 Rectangle with rounded corners*
0 $1 Rounding radius*
0 $2 $3 $4 $5 $6 $7 $8 $9 X,Y pos of 4 corners*
0 Add a 4 corners polygon primitive as box body*
4,1,4,$2,$3,$4,$5,$6,$7,$8,$9,$2,$3,0*
0 Add four circle primitives for the rounded corners*
1,1,$1+$1,$2,$3*
1,1,$1+$1,$4,$5*
1,1,$1+$1,$6,$7*
1,1,$1+$1,$8,$9*
0 Add four rect primitives between the rounded corners*
20,1,$1+$1,$2,$3,$4,$5,0*
20,1,$1+$1,$4,$5,$6,$7,0*
20,1,$1+$1,$6,$7,$8,$9,0*
20,1,$1+$1,$8,$9,$2,$3,0*%
G04 Aperture macros list end*
%ADD10C,0.150000*%
%ADD11C,0.120000*%
%ADD12C,1.700000*%
%ADD13O,1.700000X1.700000*%
%ADD14R,1.700000X1.700000*%
%ADD15C,3.000000*%
%ADD16R,3.000000X3.000000*%
%ADD17R,2.000000X2.500000*%
%ADD18RoundRect,0.250000X1.350000X1.975000X-1.350000X1.975000X-1.350000X-1.975000X1.350000X-1.975000X0*%
G04 APERTURE END LIST*
D10*
X45226431Y-25040236D02*
X45464527Y-24373570D01*
X45702622Y-25040236D01*
X46607384Y-24373570D02*
X46035955Y-24373570D01*
X46321669Y-24373570D02*
X46321669Y-25373570D01*
X46226431Y-25230712D01*
X46131193Y-25135474D01*
X46035955Y-25087855D01*
X47035955Y-24468808D02*
X47083574Y-24421189D01*
X47035955Y-24373570D01*
X46988336Y-24421189D01*
X47035955Y-24468808D01*
X47035955Y-24373570D01*
X48035955Y-24373570D02*
X47464527Y-24373570D01*
X47750241Y-24373570D02*
X47750241Y-25373570D01*
X47655003Y-25230712D01*
X47559765Y-25135474D01*
X47464527Y-25087855D01*
X48464527Y-24468808D02*
X48512146Y-24421189D01*
X48464527Y-24373570D01*
X48416908Y-24421189D01*
X48464527Y-24468808D01*
X48464527Y-24373570D01*
X49131193Y-25373570D02*
X49226431Y-25373570D01*
X49321669Y-25325951D01*
X49369289Y-25278331D01*
X49416908Y-25183093D01*
X49464527Y-24992617D01*
X49464527Y-24754522D01*
X49416908Y-24564046D01*
X49369289Y-24468808D01*
X49321669Y-24421189D01*
X49226431Y-24373570D01*
X49131193Y-24373570D01*
X49035955Y-24421189D01*
X48988336Y-24468808D01*
X48940717Y-24564046D01*
X48893098Y-24754522D01*
X48893098Y-24992617D01*
X48940717Y-25183093D01*
X48988336Y-25278331D01*
X49035955Y-25325951D01*
X49131193Y-25373570D01*
X38571360Y-28891022D02*
X38095170Y-28557689D01*
X38571360Y-28319594D02*
X37571360Y-28319594D01*
X37571360Y-28700546D01*
X37618980Y-28795784D01*
X37666599Y-28843403D01*
X37761837Y-28891022D01*
X37904694Y-28891022D01*
X37999932Y-28843403D01*
X38047551Y-28795784D01*
X38095170Y-28700546D01*
X38095170Y-28319594D01*
X37571360Y-29176737D02*
X38571360Y-29510070D01*
X37571360Y-29843403D01*
X38571360Y-30700546D02*
X38571360Y-30129118D01*
X38571360Y-30414832D02*
X37571360Y-30414832D01*
X37714218Y-30319594D01*
X37809456Y-30224356D01*
X37857075Y-30129118D01*
X47483922Y-29644882D02*
X47817256Y-29168692D01*
X48055351Y-29644882D02*
X48055351Y-28644882D01*
X47674398Y-28644882D01*
X47579160Y-28692502D01*
X47531541Y-28740121D01*
X47483922Y-28835359D01*
X47483922Y-28978216D01*
X47531541Y-29073454D01*
X47579160Y-29121073D01*
X47674398Y-29168692D01*
X48055351Y-29168692D01*
X46531541Y-29644882D02*
X47102970Y-29644882D01*
X46817256Y-29644882D02*
X46817256Y-28644882D01*
X46912494Y-28787740D01*
X47007732Y-28882978D01*
X47102970Y-28930597D01*
D11*
X37209980Y-25848261D02*
X39028980Y-25848261D01*
X34747980Y-26384261D02*
X34747980Y-32588261D01*
X39358980Y-32588261D02*
X41488980Y-32588261D01*
X41488980Y-26384261D02*
X41488980Y-32588261D01*
X34747980Y-32588261D02*
X36878980Y-32588261D01*
X48114625Y-27022905D02*
X46519887Y-27022905D01*
X48114625Y-31442905D02*
X46519887Y-31442905D01*
%LPC*%
D12*
X31703356Y-25558197D03*
D13*
X31703356Y-28098197D03*
D14*
X31703356Y-30638197D03*
D13*
X31703356Y-33178197D03*
D15*
X54145624Y-31941402D03*
D16*
X54145624Y-26861402D03*
X24541828Y-31950743D03*
D15*
X24541828Y-26870743D03*
D17*
X40268980Y-24893261D03*
X38118980Y-33543261D03*
X35968980Y-24893261D03*
D18*
X49917256Y-29232905D03*
X44717256Y-29232905D03*
M02*
