%FSLAX45Y45*%
G04 Gerber Fmt 4.5, Leading zero omitted, Abs format (unit mm)*
G04 Created by KiCad (PCBNEW (6.0.6)) date 2022-08-25 08:17:08*
%MOMM*%
%LPD*%
G01*
G04 APERTURE LIST*
%TA.AperFunction,Profile*%
%ADD10C,0.100000*%
%TD*%
%ADD11C,0.200000*%
%ADD12C,0.100000*%
%ADD13C,0.152000*%
G04 APERTURE END LIST*
D10*
X2032000Y-2286000D02*
X5842000Y-2286000D01*
X5842000Y-2286000D02*
X5842000Y-3556000D01*
X5842000Y-3556000D02*
X2032000Y-3556000D01*
X2032000Y-3556000D02*
X2032000Y-2286000D01*
D11*
D12*
X3120336Y-2505820D02*
X3220336Y-2605820D01*
X3220336Y-2505820D02*
X3120336Y-2605820D01*
X3120336Y-2759820D02*
X3220336Y-2859820D01*
X3220336Y-2759820D02*
X3120336Y-2859820D01*
X3120336Y-3013820D02*
X3220336Y-3113820D01*
X3220336Y-3013820D02*
X3120336Y-3113820D01*
X3120336Y-3267820D02*
X3220336Y-3367820D01*
X3220336Y-3267820D02*
X3120336Y-3367820D01*
D13*
X2530183Y-2687074D02*
G75*
G03*
X2530183Y-2687074I-76000J0D01*
G01*
X2530183Y-3195074D02*
G75*
G03*
X2530183Y-3195074I-76000J0D01*
G01*
X5490562Y-2686140D02*
G75*
G03*
X5490562Y-2686140I-76000J0D01*
G01*
X5490562Y-3194140D02*
G75*
G03*
X5490562Y-3194140I-76000J0D01*
G01*
D11*
X2284619Y-3871476D02*
X2284619Y-3671476D01*
X2332238Y-3671476D01*
X2360810Y-3681000D01*
X2379857Y-3700048D01*
X2389381Y-3719095D01*
X2398905Y-3757190D01*
X2398905Y-3785762D01*
X2389381Y-3823857D01*
X2379857Y-3842905D01*
X2360810Y-3861952D01*
X2332238Y-3871476D01*
X2284619Y-3871476D01*
X2484619Y-3871476D02*
X2484619Y-3738143D01*
X2484619Y-3776238D02*
X2494143Y-3757190D01*
X2503667Y-3747667D01*
X2522714Y-3738143D01*
X2541762Y-3738143D01*
X2608429Y-3871476D02*
X2608429Y-3738143D01*
X2608429Y-3671476D02*
X2598905Y-3681000D01*
X2608429Y-3690524D01*
X2617952Y-3681000D01*
X2608429Y-3671476D01*
X2608429Y-3690524D01*
X2732238Y-3871476D02*
X2713190Y-3861952D01*
X2703667Y-3842905D01*
X2703667Y-3671476D01*
X2837000Y-3871476D02*
X2817952Y-3861952D01*
X2808428Y-3842905D01*
X2808428Y-3671476D01*
X3065571Y-3871476D02*
X3065571Y-3671476D01*
X3132238Y-3814333D01*
X3198905Y-3671476D01*
X3198905Y-3871476D01*
X3379857Y-3871476D02*
X3379857Y-3766714D01*
X3370333Y-3747667D01*
X3351286Y-3738143D01*
X3313190Y-3738143D01*
X3294143Y-3747667D01*
X3379857Y-3861952D02*
X3360809Y-3871476D01*
X3313190Y-3871476D01*
X3294143Y-3861952D01*
X3284619Y-3842905D01*
X3284619Y-3823857D01*
X3294143Y-3804809D01*
X3313190Y-3795286D01*
X3360809Y-3795286D01*
X3379857Y-3785762D01*
X3475095Y-3738143D02*
X3475095Y-3938143D01*
X3475095Y-3747667D02*
X3494143Y-3738143D01*
X3532238Y-3738143D01*
X3551286Y-3747667D01*
X3560809Y-3757190D01*
X3570333Y-3776238D01*
X3570333Y-3833381D01*
X3560809Y-3852428D01*
X3551286Y-3861952D01*
X3532238Y-3871476D01*
X3494143Y-3871476D01*
X3475095Y-3861952D01*
X3656048Y-3852428D02*
X3665571Y-3861952D01*
X3656048Y-3871476D01*
X3646524Y-3861952D01*
X3656048Y-3852428D01*
X3656048Y-3871476D01*
X3656048Y-3747667D02*
X3665571Y-3757190D01*
X3656048Y-3766714D01*
X3646524Y-3757190D01*
X3656048Y-3747667D01*
X3656048Y-3766714D01*
D12*
X1927000Y-4151000D02*
X2027000Y-4251000D01*
X2027000Y-4151000D02*
X1927000Y-4251000D01*
D11*
X2389381Y-4291476D02*
X2275095Y-4291476D01*
X2332238Y-4291476D02*
X2332238Y-4091476D01*
X2313190Y-4120048D01*
X2294143Y-4139095D01*
X2275095Y-4148619D01*
X2475095Y-4272429D02*
X2484619Y-4281952D01*
X2475095Y-4291476D01*
X2465571Y-4281952D01*
X2475095Y-4272429D01*
X2475095Y-4291476D01*
X2608429Y-4091476D02*
X2627476Y-4091476D01*
X2646524Y-4101000D01*
X2656048Y-4110524D01*
X2665571Y-4129571D01*
X2675095Y-4167667D01*
X2675095Y-4215286D01*
X2665571Y-4253381D01*
X2656048Y-4272429D01*
X2646524Y-4281952D01*
X2627476Y-4291476D01*
X2608429Y-4291476D01*
X2589381Y-4281952D01*
X2579857Y-4272429D01*
X2570333Y-4253381D01*
X2560810Y-4215286D01*
X2560810Y-4167667D01*
X2570333Y-4129571D01*
X2579857Y-4110524D01*
X2589381Y-4101000D01*
X2608429Y-4091476D01*
X2798905Y-4091476D02*
X2817952Y-4091476D01*
X2837000Y-4101000D01*
X2846524Y-4110524D01*
X2856048Y-4129571D01*
X2865571Y-4167667D01*
X2865571Y-4215286D01*
X2856048Y-4253381D01*
X2846524Y-4272429D01*
X2837000Y-4281952D01*
X2817952Y-4291476D01*
X2798905Y-4291476D01*
X2779857Y-4281952D01*
X2770333Y-4272429D01*
X2760810Y-4253381D01*
X2751286Y-4215286D01*
X2751286Y-4167667D01*
X2760810Y-4129571D01*
X2770333Y-4110524D01*
X2779857Y-4101000D01*
X2798905Y-4091476D01*
X2989381Y-4091476D02*
X3008428Y-4091476D01*
X3027476Y-4101000D01*
X3037000Y-4110524D01*
X3046524Y-4129571D01*
X3056048Y-4167667D01*
X3056048Y-4215286D01*
X3046524Y-4253381D01*
X3037000Y-4272429D01*
X3027476Y-4281952D01*
X3008428Y-4291476D01*
X2989381Y-4291476D01*
X2970333Y-4281952D01*
X2960809Y-4272429D01*
X2951286Y-4253381D01*
X2941762Y-4215286D01*
X2941762Y-4167667D01*
X2951286Y-4129571D01*
X2960809Y-4110524D01*
X2970333Y-4101000D01*
X2989381Y-4091476D01*
X3141762Y-4291476D02*
X3141762Y-4158143D01*
X3141762Y-4177190D02*
X3151286Y-4167667D01*
X3170333Y-4158143D01*
X3198905Y-4158143D01*
X3217952Y-4167667D01*
X3227476Y-4186714D01*
X3227476Y-4291476D01*
X3227476Y-4186714D02*
X3237000Y-4167667D01*
X3256048Y-4158143D01*
X3284619Y-4158143D01*
X3303667Y-4167667D01*
X3313190Y-4186714D01*
X3313190Y-4291476D01*
X3408428Y-4291476D02*
X3408428Y-4158143D01*
X3408428Y-4177190D02*
X3417952Y-4167667D01*
X3437000Y-4158143D01*
X3465571Y-4158143D01*
X3484619Y-4167667D01*
X3494143Y-4186714D01*
X3494143Y-4291476D01*
X3494143Y-4186714D02*
X3503667Y-4167667D01*
X3522714Y-4158143D01*
X3551286Y-4158143D01*
X3570333Y-4167667D01*
X3579857Y-4186714D01*
X3579857Y-4291476D01*
X3970333Y-4081952D02*
X3798905Y-4339095D01*
X4227476Y-4091476D02*
X4246524Y-4091476D01*
X4265571Y-4101000D01*
X4275095Y-4110524D01*
X4284619Y-4129571D01*
X4294143Y-4167667D01*
X4294143Y-4215286D01*
X4284619Y-4253381D01*
X4275095Y-4272429D01*
X4265571Y-4281952D01*
X4246524Y-4291476D01*
X4227476Y-4291476D01*
X4208429Y-4281952D01*
X4198905Y-4272429D01*
X4189381Y-4253381D01*
X4179857Y-4215286D01*
X4179857Y-4167667D01*
X4189381Y-4129571D01*
X4198905Y-4110524D01*
X4208429Y-4101000D01*
X4227476Y-4091476D01*
X4379857Y-4272429D02*
X4389381Y-4281952D01*
X4379857Y-4291476D01*
X4370333Y-4281952D01*
X4379857Y-4272429D01*
X4379857Y-4291476D01*
X4513190Y-4091476D02*
X4532238Y-4091476D01*
X4551286Y-4101000D01*
X4560810Y-4110524D01*
X4570333Y-4129571D01*
X4579857Y-4167667D01*
X4579857Y-4215286D01*
X4570333Y-4253381D01*
X4560810Y-4272429D01*
X4551286Y-4281952D01*
X4532238Y-4291476D01*
X4513190Y-4291476D01*
X4494143Y-4281952D01*
X4484619Y-4272429D01*
X4475095Y-4253381D01*
X4465571Y-4215286D01*
X4465571Y-4167667D01*
X4475095Y-4129571D01*
X4484619Y-4110524D01*
X4494143Y-4101000D01*
X4513190Y-4091476D01*
X4646524Y-4091476D02*
X4770333Y-4091476D01*
X4703667Y-4167667D01*
X4732238Y-4167667D01*
X4751286Y-4177190D01*
X4760810Y-4186714D01*
X4770333Y-4205762D01*
X4770333Y-4253381D01*
X4760810Y-4272429D01*
X4751286Y-4281952D01*
X4732238Y-4291476D01*
X4675095Y-4291476D01*
X4656048Y-4281952D01*
X4646524Y-4272429D01*
X4865571Y-4291476D02*
X4903667Y-4291476D01*
X4922714Y-4281952D01*
X4932238Y-4272429D01*
X4951286Y-4243857D01*
X4960810Y-4205762D01*
X4960810Y-4129571D01*
X4951286Y-4110524D01*
X4941762Y-4101000D01*
X4922714Y-4091476D01*
X4884619Y-4091476D01*
X4865571Y-4101000D01*
X4856048Y-4110524D01*
X4846524Y-4129571D01*
X4846524Y-4177190D01*
X4856048Y-4196238D01*
X4865571Y-4205762D01*
X4884619Y-4215286D01*
X4922714Y-4215286D01*
X4941762Y-4205762D01*
X4951286Y-4196238D01*
X4960810Y-4177190D01*
X5132238Y-4158143D02*
X5132238Y-4291476D01*
X5084619Y-4081952D02*
X5037000Y-4224810D01*
X5160810Y-4224810D01*
X5227476Y-4091476D02*
X5227476Y-4129571D01*
X5303667Y-4091476D02*
X5303667Y-4129571D01*
X5598905Y-4367667D02*
X5589381Y-4358143D01*
X5570333Y-4329571D01*
X5560810Y-4310524D01*
X5551286Y-4281952D01*
X5541762Y-4234333D01*
X5541762Y-4196238D01*
X5551286Y-4148619D01*
X5560810Y-4120048D01*
X5570333Y-4101000D01*
X5589381Y-4072428D01*
X5598905Y-4062905D01*
X5760809Y-4158143D02*
X5760809Y-4291476D01*
X5713190Y-4081952D02*
X5665571Y-4224810D01*
X5789381Y-4224810D01*
X6017952Y-4291476D02*
X6017952Y-4091476D01*
X6103667Y-4291476D02*
X6103667Y-4186714D01*
X6094143Y-4167667D01*
X6075095Y-4158143D01*
X6046524Y-4158143D01*
X6027476Y-4167667D01*
X6017952Y-4177190D01*
X6227476Y-4291476D02*
X6208428Y-4281952D01*
X6198905Y-4272429D01*
X6189381Y-4253381D01*
X6189381Y-4196238D01*
X6198905Y-4177190D01*
X6208428Y-4167667D01*
X6227476Y-4158143D01*
X6256048Y-4158143D01*
X6275095Y-4167667D01*
X6284619Y-4177190D01*
X6294143Y-4196238D01*
X6294143Y-4253381D01*
X6284619Y-4272429D01*
X6275095Y-4281952D01*
X6256048Y-4291476D01*
X6227476Y-4291476D01*
X6408428Y-4291476D02*
X6389381Y-4281952D01*
X6379857Y-4262905D01*
X6379857Y-4091476D01*
X6560809Y-4281952D02*
X6541762Y-4291476D01*
X6503667Y-4291476D01*
X6484619Y-4281952D01*
X6475095Y-4262905D01*
X6475095Y-4186714D01*
X6484619Y-4167667D01*
X6503667Y-4158143D01*
X6541762Y-4158143D01*
X6560809Y-4167667D01*
X6570333Y-4186714D01*
X6570333Y-4205762D01*
X6475095Y-4224810D01*
X6646524Y-4281952D02*
X6665571Y-4291476D01*
X6703667Y-4291476D01*
X6722714Y-4281952D01*
X6732238Y-4262905D01*
X6732238Y-4253381D01*
X6722714Y-4234333D01*
X6703667Y-4224810D01*
X6675095Y-4224810D01*
X6656048Y-4215286D01*
X6646524Y-4196238D01*
X6646524Y-4186714D01*
X6656048Y-4167667D01*
X6675095Y-4158143D01*
X6703667Y-4158143D01*
X6722714Y-4167667D01*
X6798905Y-4367667D02*
X6808428Y-4358143D01*
X6827476Y-4329571D01*
X6837000Y-4310524D01*
X6846524Y-4281952D01*
X6856048Y-4234333D01*
X6856048Y-4196238D01*
X6846524Y-4148619D01*
X6837000Y-4120048D01*
X6827476Y-4101000D01*
X6808428Y-4072428D01*
X6798905Y-4062905D01*
D13*
X2027000Y-4465000D02*
G75*
G03*
X2027000Y-4465000I-76000J0D01*
G01*
D11*
X2389381Y-4555476D02*
X2275095Y-4555476D01*
X2332238Y-4555476D02*
X2332238Y-4355476D01*
X2313190Y-4384048D01*
X2294143Y-4403095D01*
X2275095Y-4412619D01*
X2475095Y-4536429D02*
X2484619Y-4545952D01*
X2475095Y-4555476D01*
X2465571Y-4545952D01*
X2475095Y-4536429D01*
X2475095Y-4555476D01*
X2665571Y-4355476D02*
X2570333Y-4355476D01*
X2560810Y-4450714D01*
X2570333Y-4441190D01*
X2589381Y-4431667D01*
X2637000Y-4431667D01*
X2656048Y-4441190D01*
X2665571Y-4450714D01*
X2675095Y-4469762D01*
X2675095Y-4517381D01*
X2665571Y-4536429D01*
X2656048Y-4545952D01*
X2637000Y-4555476D01*
X2589381Y-4555476D01*
X2570333Y-4545952D01*
X2560810Y-4536429D01*
X2751286Y-4374524D02*
X2760810Y-4365000D01*
X2779857Y-4355476D01*
X2827476Y-4355476D01*
X2846524Y-4365000D01*
X2856048Y-4374524D01*
X2865571Y-4393571D01*
X2865571Y-4412619D01*
X2856048Y-4441190D01*
X2741762Y-4555476D01*
X2865571Y-4555476D01*
X2989381Y-4355476D02*
X3008428Y-4355476D01*
X3027476Y-4365000D01*
X3037000Y-4374524D01*
X3046524Y-4393571D01*
X3056048Y-4431667D01*
X3056048Y-4479286D01*
X3046524Y-4517381D01*
X3037000Y-4536429D01*
X3027476Y-4545952D01*
X3008428Y-4555476D01*
X2989381Y-4555476D01*
X2970333Y-4545952D01*
X2960809Y-4536429D01*
X2951286Y-4517381D01*
X2941762Y-4479286D01*
X2941762Y-4431667D01*
X2951286Y-4393571D01*
X2960809Y-4374524D01*
X2970333Y-4365000D01*
X2989381Y-4355476D01*
X3141762Y-4555476D02*
X3141762Y-4422143D01*
X3141762Y-4441190D02*
X3151286Y-4431667D01*
X3170333Y-4422143D01*
X3198905Y-4422143D01*
X3217952Y-4431667D01*
X3227476Y-4450714D01*
X3227476Y-4555476D01*
X3227476Y-4450714D02*
X3237000Y-4431667D01*
X3256048Y-4422143D01*
X3284619Y-4422143D01*
X3303667Y-4431667D01*
X3313190Y-4450714D01*
X3313190Y-4555476D01*
X3408428Y-4555476D02*
X3408428Y-4422143D01*
X3408428Y-4441190D02*
X3417952Y-4431667D01*
X3437000Y-4422143D01*
X3465571Y-4422143D01*
X3484619Y-4431667D01*
X3494143Y-4450714D01*
X3494143Y-4555476D01*
X3494143Y-4450714D02*
X3503667Y-4431667D01*
X3522714Y-4422143D01*
X3551286Y-4422143D01*
X3570333Y-4431667D01*
X3579857Y-4450714D01*
X3579857Y-4555476D01*
X3970333Y-4345952D02*
X3798905Y-4603095D01*
X4227476Y-4355476D02*
X4246524Y-4355476D01*
X4265571Y-4365000D01*
X4275095Y-4374524D01*
X4284619Y-4393571D01*
X4294143Y-4431667D01*
X4294143Y-4479286D01*
X4284619Y-4517381D01*
X4275095Y-4536429D01*
X4265571Y-4545952D01*
X4246524Y-4555476D01*
X4227476Y-4555476D01*
X4208429Y-4545952D01*
X4198905Y-4536429D01*
X4189381Y-4517381D01*
X4179857Y-4479286D01*
X4179857Y-4431667D01*
X4189381Y-4393571D01*
X4198905Y-4374524D01*
X4208429Y-4365000D01*
X4227476Y-4355476D01*
X4379857Y-4536429D02*
X4389381Y-4545952D01*
X4379857Y-4555476D01*
X4370333Y-4545952D01*
X4379857Y-4536429D01*
X4379857Y-4555476D01*
X4513190Y-4355476D02*
X4532238Y-4355476D01*
X4551286Y-4365000D01*
X4560810Y-4374524D01*
X4570333Y-4393571D01*
X4579857Y-4431667D01*
X4579857Y-4479286D01*
X4570333Y-4517381D01*
X4560810Y-4536429D01*
X4551286Y-4545952D01*
X4532238Y-4555476D01*
X4513190Y-4555476D01*
X4494143Y-4545952D01*
X4484619Y-4536429D01*
X4475095Y-4517381D01*
X4465571Y-4479286D01*
X4465571Y-4431667D01*
X4475095Y-4393571D01*
X4484619Y-4374524D01*
X4494143Y-4365000D01*
X4513190Y-4355476D01*
X4760810Y-4355476D02*
X4665571Y-4355476D01*
X4656048Y-4450714D01*
X4665571Y-4441190D01*
X4684619Y-4431667D01*
X4732238Y-4431667D01*
X4751286Y-4441190D01*
X4760810Y-4450714D01*
X4770333Y-4469762D01*
X4770333Y-4517381D01*
X4760810Y-4536429D01*
X4751286Y-4545952D01*
X4732238Y-4555476D01*
X4684619Y-4555476D01*
X4665571Y-4545952D01*
X4656048Y-4536429D01*
X4865571Y-4555476D02*
X4903667Y-4555476D01*
X4922714Y-4545952D01*
X4932238Y-4536429D01*
X4951286Y-4507857D01*
X4960810Y-4469762D01*
X4960810Y-4393571D01*
X4951286Y-4374524D01*
X4941762Y-4365000D01*
X4922714Y-4355476D01*
X4884619Y-4355476D01*
X4865571Y-4365000D01*
X4856048Y-4374524D01*
X4846524Y-4393571D01*
X4846524Y-4441190D01*
X4856048Y-4460238D01*
X4865571Y-4469762D01*
X4884619Y-4479286D01*
X4922714Y-4479286D01*
X4941762Y-4469762D01*
X4951286Y-4460238D01*
X4960810Y-4441190D01*
X5075095Y-4441190D02*
X5056048Y-4431667D01*
X5046524Y-4422143D01*
X5037000Y-4403095D01*
X5037000Y-4393571D01*
X5046524Y-4374524D01*
X5056048Y-4365000D01*
X5075095Y-4355476D01*
X5113190Y-4355476D01*
X5132238Y-4365000D01*
X5141762Y-4374524D01*
X5151286Y-4393571D01*
X5151286Y-4403095D01*
X5141762Y-4422143D01*
X5132238Y-4431667D01*
X5113190Y-4441190D01*
X5075095Y-4441190D01*
X5056048Y-4450714D01*
X5046524Y-4460238D01*
X5037000Y-4479286D01*
X5037000Y-4517381D01*
X5046524Y-4536429D01*
X5056048Y-4545952D01*
X5075095Y-4555476D01*
X5113190Y-4555476D01*
X5132238Y-4545952D01*
X5141762Y-4536429D01*
X5151286Y-4517381D01*
X5151286Y-4479286D01*
X5141762Y-4460238D01*
X5132238Y-4450714D01*
X5113190Y-4441190D01*
X5227476Y-4355476D02*
X5227476Y-4393571D01*
X5303667Y-4355476D02*
X5303667Y-4393571D01*
X5598905Y-4631667D02*
X5589381Y-4622143D01*
X5570333Y-4593571D01*
X5560810Y-4574524D01*
X5551286Y-4545952D01*
X5541762Y-4498333D01*
X5541762Y-4460238D01*
X5551286Y-4412619D01*
X5560810Y-4384048D01*
X5570333Y-4365000D01*
X5589381Y-4336429D01*
X5598905Y-4326905D01*
X5760809Y-4422143D02*
X5760809Y-4555476D01*
X5713190Y-4345952D02*
X5665571Y-4488810D01*
X5789381Y-4488810D01*
X6017952Y-4555476D02*
X6017952Y-4355476D01*
X6103667Y-4555476D02*
X6103667Y-4450714D01*
X6094143Y-4431667D01*
X6075095Y-4422143D01*
X6046524Y-4422143D01*
X6027476Y-4431667D01*
X6017952Y-4441190D01*
X6227476Y-4555476D02*
X6208428Y-4545952D01*
X6198905Y-4536429D01*
X6189381Y-4517381D01*
X6189381Y-4460238D01*
X6198905Y-4441190D01*
X6208428Y-4431667D01*
X6227476Y-4422143D01*
X6256048Y-4422143D01*
X6275095Y-4431667D01*
X6284619Y-4441190D01*
X6294143Y-4460238D01*
X6294143Y-4517381D01*
X6284619Y-4536429D01*
X6275095Y-4545952D01*
X6256048Y-4555476D01*
X6227476Y-4555476D01*
X6408428Y-4555476D02*
X6389381Y-4545952D01*
X6379857Y-4526905D01*
X6379857Y-4355476D01*
X6560809Y-4545952D02*
X6541762Y-4555476D01*
X6503667Y-4555476D01*
X6484619Y-4545952D01*
X6475095Y-4526905D01*
X6475095Y-4450714D01*
X6484619Y-4431667D01*
X6503667Y-4422143D01*
X6541762Y-4422143D01*
X6560809Y-4431667D01*
X6570333Y-4450714D01*
X6570333Y-4469762D01*
X6475095Y-4488810D01*
X6646524Y-4545952D02*
X6665571Y-4555476D01*
X6703667Y-4555476D01*
X6722714Y-4545952D01*
X6732238Y-4526905D01*
X6732238Y-4517381D01*
X6722714Y-4498333D01*
X6703667Y-4488810D01*
X6675095Y-4488810D01*
X6656048Y-4479286D01*
X6646524Y-4460238D01*
X6646524Y-4450714D01*
X6656048Y-4431667D01*
X6675095Y-4422143D01*
X6703667Y-4422143D01*
X6722714Y-4431667D01*
X6798905Y-4631667D02*
X6808428Y-4622143D01*
X6827476Y-4593571D01*
X6837000Y-4574524D01*
X6846524Y-4545952D01*
X6856048Y-4498333D01*
X6856048Y-4460238D01*
X6846524Y-4412619D01*
X6837000Y-4384048D01*
X6827476Y-4365000D01*
X6808428Y-4336429D01*
X6798905Y-4326905D01*
M02*
